<svg xmlns="http://www.w3.org/2000/svg" viewBox="0 0 394 221.7"><defs><style>.cls-1{fill:#d74898;}.cls-2{fill:#03ffc4;}.cls-3{opacity:0.2;}</style></defs><title>sfnp</title><g id="N-2"><polygon class="cls-1" points="292 27.6 278.7 35.2 263.9 26.5 278.7 18 292 27.6"/><rect class="cls-2" x="263.7" y="168.8" width="4.2" height="38.35"/><ellipse class="cls-2" cx="265.8" cy="207.1" rx="2.1" ry="2.2"/><path class="cls-3" d="M263.7,168.7v38.4a2.1,2.1,0,0,0,2.1,2.1,2.1,2.1,0,0,0,2.1-2.1V168.7Z"/><rect class="cls-2" x="272.1" y="163" width="6.6" height="51.96"/><ellipse class="cls-2" cx="275.4" cy="214.9" rx="3.3" ry="3.7"/><path class="cls-3" d="M272.1,163v51.9a3.3,3.3,0,1,0,6.6,0V163Z"/><rect class="cls-2" x="267.9" y="166.8" width="4.2" height="10.41"/><path class="cls-2" d="M267.9,176.4v4.4a2.1,2.1,0,1,1,4.2,0v-4.4Z"/><path class="cls-3" d="M267.9,166.8v14a2.1,2.1,0,1,1,4.2,0v-14Z"/><polygon class="cls-2" points="263.7 173.8 263.9 26.5 278.7 35.1 278.7 182.2 263.7 173.8"/><polygon class="cls-3" points="263.7 173.8 263.9 26.5 278.7 35.2 278.7 182.2 263.7 173.8"/><polygon class="cls-1" points="220.7 182.2 236.3 173.2 236.3 88.2 220.8 88.2 220.7 182.2"/><polygon class="cls-2" points="220.7 182.2 220.7 93.2 235.5 104.3 235.5 120.1 263.7 135.9 263.7 118.9 250.1 111.8 220.7 55.9 220.7 36.7 205.9 26.5 205.9 172.6 220.7 182.2"/><polygon class="cls-1" points="278.7 182.2 278.7 128.5 263.7 135.9 263.7 118.9 278.7 112.2 278.7 35.2 292 27.6 292 175.2 278.7 182.2"/><polygon class="cls-1" points="220.7 36.7 235.5 27.6 235.5 46.3 220.7 55.9 220.7 36.7"/><polygon class="cls-1" points="220.7 55.9 235.5 46.3 264.2 103.5 278.7 112.2 263.7 118.9 250.1 111.8 220.7 55.9"/><polygon class="cls-3" points="220.7 55.9 235.5 46.3 264.2 103.5 278.7 112.2 263.7 118.9 250.1 111.8 220.7 55.9"/><polygon class="cls-1" points="235.5 27.6 220.7 36.7 205.9 26.5 221.2 18 235.5 27.6"/><rect class="cls-2" x="205.9" y="163.9" width="4.3" height="36.51"/><circle class="cls-2" cx="208.1" cy="200.4" r="2.2"/><path class="cls-2" d="M210.2,175.1v4.4a2.2,2.2,0,0,1,4.4,0v-4.4Z"/><rect class="cls-2" x="214.5" y="169.7" width="4.3" height="36.51"/><circle class="cls-2" cx="216.7" cy="206.2" r="2.2"/><rect class="cls-2" x="83.1" y="159.7" width="4.3" height="38.35"/><circle class="cls-2" cx="85.3" cy="198" r="2.2"/><path class="cls-3" d="M83.1,159.6V198a2.1,2.1,0,0,0,2.2,2.1,2.1,2.1,0,0,0,2.1-2.1V159.6Z"/><rect class="cls-2" x="91.8" y="153.9" width="6.9" height="51.96"/><ellipse class="cls-2" cx="95.2" cy="205.8" rx="3.4" ry="3.7"/><path class="cls-3" d="M91.8,153.9v51.9a3.5,3.5,0,0,0,3.4,3.7,3.6,3.6,0,0,0,3.5-3.7V153.9Z"/><rect class="cls-2" x="87.4" y="157.7" width="4.3" height="10.41"/><path class="cls-2" d="M87.4,167.3v4.4a2.2,2.2,0,0,1,4.4,0v-4.4Z"/><path class="cls-3" d="M87.4,157.7v14a2.2,2.2,0,0,1,4.4,0v-14Z"/></g><g id="P-2"><polygon class="cls-2" points="315.9 182 315.9 106.6 330.9 106.6 330.9 172.6 315.9 182"/><polygon class="cls-1" points="302.4 173.7 302.4 41.8 315.9 49.5 315.9 87.5 330.4 98.1 359.2 98.1 359.2 116.7 330.8 116.7 315.9 106.6 315.9 182 302.4 173.7"/><polygon class="cls-1" points="344.8 50.5 344.8 32.2 373.9 49.9 373.9 90.1 359.3 80.2 359.3 59.7 344.8 50.5"/><polygon class="cls-2" points="344.8 50.5 344.8 32.2 315.9 49.5 315.9 87.5 330.8 78.7 330.8 59.3 344.8 50.5"/><polygon class="cls-2" points="359.2 98.1 359.3 116.8 373.9 106.1 388.1 80.5 388.1 41.2 373.9 49.9 373.9 90.1 359.2 98.1"/><polygon class="cls-2" points="302.4 41.8 345.2 16.6 388.1 41.2 373.9 49.9 344.8 32.2 315.9 49.5 302.4 41.8"/><polygon class="cls-3" points="302.4 41.8 345.2 16.6 388.1 41.2 373.9 49.9 344.8 32.2 315.9 49.5 302.4 41.8"/><polygon class="cls-2" points="315.9 87.5 330.8 78.7 344.9 89.5 359.3 80.2 373.9 90.1 359.2 98.1 330.4 98.1 315.9 87.5"/><polygon class="cls-3" points="315.8 87.5 330.7 78.7 344.8 89.5 359.2 80.2 373.8 90.1 359.1 98.1 330.2 98.1 315.8 87.5"/><circle class="cls-2" cx="9" cy="206.5" r="2.2"/><rect class="cls-2" x="45.8" y="171.5" width="4.3" height="8.17"/><path class="cls-2" d="M45.8,179.6V184a2.1,2.1,0,0,1,2.1-2.2,2.2,2.2,0,0,1,2.2,2.2v-4.4Z"/><rect class="cls-2" x="53" y="177.4" width="4.3" height="15.42"/><rect class="cls-2" x="50.1" y="174.2" width="2.9" height="23.78"/><path class="cls-2" d="M53,192.7V197a2.2,2.2,0,0,1,2.2-2.1,2.1,2.1,0,0,1,2.1,2.1v-4.3Z"/><path class="cls-3" d="M53,177.4v15.3h0v4.3a2.2,2.2,0,1,1,4.4,0v-4.3h0V177.4Z"/><rect class="cls-2" x="70.1" y="167.3" width="4.3" height="19.14"/><path class="cls-2" d="M70.1,186.4v4.4a2.2,2.2,0,1,1,4.4,0v-4.4Z"/><path class="cls-3" d="M70.1,167.3v23.5a2.2,2.2,0,0,1,2.2-2.2,2.1,2.1,0,0,1,2.1,2.2V167.3Z"/><rect class="cls-2" x="78.8" y="162.8" width="4.3" height="15.67"/><path class="cls-2" d="M78.8,178.5v4.3a2.1,2.1,0,0,1,2.1-2.2,2.2,2.2,0,0,1,2.2,2.2v-4.3Z"/><path class="cls-3" d="M78.8,162.8v20a2.1,2.1,0,0,1,2.1-2.2,2.2,2.2,0,0,1,2.2,2.2v-20Z"/><rect class="cls-2" x="61.6" y="172.7" width="4.3" height="8.88"/><path class="cls-2" d="M61.6,181.5v4.3a2.1,2.1,0,0,1,2.2-2.1,2.1,2.1,0,0,1,2.1,2.1v-4.3Z"/><path class="cls-3" d="M65.9,172.7H61.6v8.8h0v4.2a2.1,2.1,0,0,1,2.1-2.1,2.1,2.1,0,0,1,2.2,2.1v-4.2h0Z"/><rect class="cls-2" x="37.1" y="169.8" width="4.3" height="14.46"/><path class="cls-2" d="M37.1,184.2v4.4a2.2,2.2,0,0,1,2.2-2.2,2.1,2.1,0,0,1,2.1,2.2v-4.4Z"/><rect class="cls-2" x="32.8" y="168.1" width="4.3" height="36.51"/><circle class="cls-2" cx="34.9" cy="204.6" r="2.2"/><rect class="cls-2" x="41.4" y="173.4" width="4.3" height="23.78"/><circle class="cls-2" cx="43.6" cy="197" r="2.2"/><rect class="cls-2" x="57.3" y="175.2" width="4.3" height="35.15"/><circle class="cls-2" cx="59.5" cy="210.4" r="2.2"/><path class="cls-3" d="M57.3,175.2v35.2a2.2,2.2,0,0,0,4.4,0V175.2Z"/><rect class="cls-2" x="65.8" y="168.6" width="4.3" height="35.15"/><circle class="cls-2" cx="68" cy="203.7" r="2.2"/><path class="cls-3" d="M65.8,168.6v35.1a2.2,2.2,0,0,0,2.2,2.2,2.1,2.1,0,0,0,2.1-2.2V168.6Z"/><rect class="cls-2" x="74.4" y="164.9" width="4.3" height="27.82"/><circle class="cls-2" cx="76.6" cy="192.8" r="2.2"/><path class="cls-3" d="M78.8,164.8H74.4v27.9h0a2.2,2.2,0,0,0,4.4,0h0Z"/><ellipse class="cls-2" cx="51.5" cy="197.9" rx="1.5" ry="2.2"/></g><g id="F-2"><polygon class="cls-2" points="131.6 32.4 154.2 17.3 167.3 26.3 181.5 17.7 196.9 26.6 168.1 42.9 154.3 34.7 139.1 44.1 131.6 32.4"/><polygon class="cls-2" points="139.4 171 139.4 106.7 124.5 106.7 124.5 181.4 139.4 171"/><polygon class="cls-3" points="131.6 32.4 154.2 17.3 167.3 26.3 181.5 17.7 196.9 26.6 168.1 42.9 154.3 34.7 139.1 44.1 131.6 32.4"/><polygon class="cls-2" points="139.1 80.2 139.1 26.3 124.2 33.8 124.2 89.1 139.1 80.2"/><polygon class="cls-2" points="183 108.1 183 90.5 168.1 99.9 168.1 117.5 183 108.1"/><polygon class="cls-2" points="154.2 53.4 154.3 34.7 139.1 44.1 139.1 62.5 154.2 53.4"/><polygon class="cls-2" points="196.9 44.3 196.9 26.6 168.1 42.9 168.1 62.5 196.9 44.3"/><polygon class="cls-1" points="110.6 172.1 110.6 25.2 124.2 33.8 124.2 89.1 141.1 99.9 168.1 99.9 168.1 117.6 140.9 117.6 124.5 106.7 124.5 181.4 110.6 172.1"/><polygon class="cls-1" points="154.2 53.4 154.2 34.7 168.1 42.9 168.1 62.5 154.2 53.4"/><polygon class="cls-2" points="110.6 25.2 124.8 15.8 139.1 26.3 124.2 33.8 110.6 25.2"/><path class="cls-2" d="M124.5,189.7V194a2.1,2.1,0,0,1,2.1-2.1,2.2,2.2,0,0,1,2.2,2.1v-4.3Z"/><path class="cls-2" d="M218.8,181.7v1.9a1,1,0,0,1,1-1,.9.9,0,0,1,.9,1v-1.9Z"/><rect class="cls-2" x="124.5" y="177.2" width="4.3" height="12.51"/><polygon class="cls-2" points="124.2 89.1 139.1 80.2 153.6 90.5 168.7 81.2 183 90.5 168.1 99.9 141.1 99.9 124.2 89.1"/><polygon class="cls-3" points="124.2 89.1 139.1 80.2 153.6 90.5 168.7 81.2 183 90.5 168.1 99.9 141.1 99.9 124.2 89.1"/><rect class="cls-1" x="110.6" y="170.1" width="4.3" height="21.28"/><circle class="cls-1" cx="112.8" cy="191.4" r="2.2"/><rect class="cls-1" x="144.9" y="117.2" width="4.3" height="28.28"/><circle class="cls-1" cx="147.1" cy="145.5" r="2.2"/><rect class="cls-2" x="128.8" y="174.2" width="4.3" height="33.86"/><path class="cls-2" d="M168.1,124.4v4.3a2.2,2.2,0,0,1,4.4,0v-4.3Z"/><rect class="cls-2" x="168.1" y="111.9" width="4.3" height="12.51"/><rect class="cls-2" x="172.5" y="109.1" width="4.3" height="26.08"/><circle class="cls-2" cx="131" cy="208.1" r="2.2"/><circle class="cls-2" cx="174.6" cy="135" r="2.2"/><path class="cls-2" d="M246.9,135v4.4a2.1,2.1,0,0,1,2.1-2.2,2.2,2.2,0,0,1,2.2,2.2V135Z"/><rect class="cls-2" x="246.9" y="126.3" width="4.3" height="8.92"/><rect class="cls-2" x="251.2" y="123.5" width="4.3" height="37.91"/><circle class="cls-2" cx="253.4" cy="161.4" r="2.2"/><path class="cls-2" d="M238.2,138.7v4.4a2.2,2.2,0,0,1,2.2-2.2,2.1,2.1,0,0,1,2.1,2.2v-4.4Z"/><rect class="cls-2" x="238.2" y="118.9" width="4.3" height="19.84"/><rect class="cls-2" x="242.5" y="123.5" width="4.3" height="26.08"/><circle class="cls-2" cx="244.7" cy="149.3" r="2.2"/><path class="cls-2" d="M176.8,114.1v4.4a2.2,2.2,0,0,1,2.2-2.2,2.1,2.1,0,0,1,2.1,2.2v-4.4Z"/><rect class="cls-2" x="176.8" y="101.6" width="4.3" height="12.51"/><path class="cls-2" d="M261.8,147.4v4.3c0-1.2.5-2.1,1-2.1s.9.9.9,2.1v-4.3Z"/><rect class="cls-2" x="261.8" y="134.9" width="1.9" height="12.51"/><rect class="cls-2" x="181.1" y="98.9" width="1.9" height="44.51"/><path class="cls-2" d="M255.6,142.3v4.3a2.2,2.2,0,0,1,2.2-2.2,2.1,2.1,0,0,1,2.1,2.2v-4.3Z"/><rect class="cls-2" x="255.6" y="129.8" width="4.3" height="12.51"/><rect class="cls-2" x="259.9" y="127" width="1.9" height="27.2"/><rect class="cls-2" x="218.8" y="179.8" width="1.9" height="1.89"/><ellipse class="cls-2" cx="182.1" cy="143.4" rx="0.9" ry="1"/><ellipse class="cls-2" cx="260.9" cy="154.2" rx="0.9" ry="1"/><rect class="cls-2" x="328.9" y="167.9" width="2" height="27.2"/><ellipse class="cls-2" cx="329.9" cy="195.1" rx="1" ry="1"/><rect class="cls-2" x="236.3" y="119.8" width="1.9" height="62.73"/><ellipse class="cls-2" cx="237.2" cy="182.5" rx="0.9" ry="1"/><path class="cls-2" d="M133.1,186.4v4.4a2.2,2.2,0,1,1,4.4,0v-4.4Z"/><rect class="cls-2" x="133.1" y="171.5" width="4.3" height="15.1"/><path class="cls-2" d="M315.9,188.9v4.3a2.2,2.2,0,0,1,4.4,0v-4.3Z"/><rect class="cls-2" x="315.9" y="176.4" width="4.3" height="12.51"/><rect class="cls-2" x="320.3" y="173.4" width="4.3" height="33.86"/><circle class="cls-2" cx="322.4" cy="207.2" r="2.2"/><path class="cls-2" d="M324.6,185.6v4.3a2.1,2.1,0,0,1,2.2-2.1,2.1,2.1,0,0,1,2.1,2.1v-4.3Z"/><rect class="cls-2" x="324.6" y="170.6" width="4.3" height="15.1"/><rect class="cls-2" x="386.5" y="78.7" width="1.6" height="27.2"/><ellipse class="cls-2" cx="387.3" cy="106" rx="0.8" ry="1"/><path class="cls-2" d="M374.2,105.8v4.3a2.1,2.1,0,0,1,2.1-2.1,2.1,2.1,0,0,1,2.2,2.1v-4.3Z"/><rect class="cls-2" x="374.2" y="93.3" width="4.3" height="12.51"/><rect class="cls-2" x="378.5" y="90.3" width="4.3" height="21.62"/><circle class="cls-2" cx="380.7" cy="111.9" r="2.2"/><path class="cls-2" d="M382.8,96.4v4.4a1.8,1.8,0,1,1,3.6,0V96.4Z"/><rect class="cls-2" x="382.8" y="81.5" width="3.6" height="15.1"/><rect class="cls-2" x="137.5" y="170.3" width="1.9" height="41.67"/><path class="cls-2" d="M359.3,123.9v4.4a2.1,2.1,0,0,1,2.1-2.2,2.2,2.2,0,0,1,2.2,2.2v-4.4Z"/><rect class="cls-2" x="359.3" y="111.4" width="4.3" height="12.51"/><rect class="cls-2" x="363.6" y="108.4" width="4.3" height="33.86"/><circle class="cls-2" cx="365.8" cy="142.3" r="2.2"/><path class="cls-2" d="M367.9,120.7V125a2.2,2.2,0,0,1,4.4,0v-4.3Z"/><rect class="cls-2" x="367.9" y="105.7" width="4.3" height="15.1"/><rect class="cls-2" x="372.3" y="104.5" width="1.9" height="25.01"/><circle class="cls-2" cx="138.4" cy="212" r="0.9"/><circle class="cls-2" cx="373.2" cy="129.5" r="0.9"/><rect class="cls-1" x="118.9" y="177.8" width="5.5" height="21.28"/><rect class="cls-1" x="139.4" y="115.2" width="5.5" height="19.33"/><ellipse class="cls-1" cx="121.7" cy="199" rx="2.8" ry="2.9"/><path class="cls-1" d="M114.6,182.8v4.3a2.2,2.2,0,0,1,4.4,0v-4.3Z"/><path class="cls-1" d="M139.4,134.6v4.3a2.5,2.5,0,0,1,2.7-2.2c1.6,0,2.8,1,2.8,2.2v-4.3Z"/><rect class="cls-1" x="283.3" y="176.3" width="3.6" height="28.28"/><ellipse class="cls-1" cx="285.1" cy="204.6" rx="1.8" ry="2.2"/><rect class="cls-1" x="278.7" y="174.4" width="4.6" height="19.33"/><path class="cls-1" d="M278.7,193.7V198a2.3,2.3,0,0,1,4.6,0v-4.3Z"/><rect class="cls-1" x="229.2" y="167.1" width="4.3" height="28.28"/><circle class="cls-1" cx="231.3" cy="195.3" r="2.2"/><rect class="cls-1" x="223.6" y="165.1" width="5.5" height="19.33"/><path class="cls-1" d="M223.6,184.5v4.3c0-1.2,1.3-2.2,2.8-2.2s2.8,1,2.8,2.2v-4.3Z"/><rect class="cls-1" x="154.8" y="113.5" width="4.3" height="35.28"/><circle class="cls-1" cx="157" cy="148.8" r="2.2"/><ellipse class="cls-1" cx="166.1" cy="149.8" rx="2.1" ry="2.2"/><ellipse class="cls-1" cx="222.2" cy="199.8" rx="1.4" ry="1.5"/><rect class="cls-1" x="149.2" y="111.6" width="5.5" height="9.33"/><path class="cls-1" d="M149.2,120.9v4.4c0-1.2,1.3-2.2,2.8-2.2s2.8,1,2.8,2.2v-4.4Z"/><rect class="cls-1" x="336.4" y="116.4" width="4.3" height="28.28"/><circle class="cls-1" cx="338.5" cy="144.7" r="2.2"/><rect class="cls-1" x="330.9" y="109.7" width="5.5" height="19.33"/><path class="cls-1" d="M330.9,128.4v4.3c0-1.2,1.3-2.2,2.8-2.2s2.8,1,2.8,2.2v-4.3Z"/><rect class="cls-1" x="340.7" y="110.8" width="5.5" height="9.33"/><path class="cls-1" d="M340.7,120.1v4.4c0-1.2,1.2-2.2,2.8-2.2a2.5,2.5,0,0,1,2.7,2.2v-4.4Z"/><rect class="cls-1" x="164" y="114.8" width="4.1" height="35.28"/><rect class="cls-1" x="220.7" y="180.5" width="2.9" height="19.61"/><rect class="cls-1" x="354.8" y="111.3" width="4.4" height="28.28"/><ellipse class="cls-1" cx="357" cy="139.6" rx="2.2" ry="2.2"/><rect class="cls-1" x="349.2" y="109.4" width="5.7" height="19.33"/><path class="cls-1" d="M349.2,128.7V133c0-1.1,1.3-2.1,2.8-2.1s2.8,1,2.8,2.1v-4.3Z"/><ellipse class="cls-1" cx="347.7" cy="136" rx="1.5" ry="1.5"/><rect class="cls-1" x="346.2" y="116.4" width="3" height="19.61"/><rect class="cls-1" x="159" y="116.7" width="5" height="16.23"/><path class="cls-1" d="M159,133v4.3a2.5,2.5,0,0,1,5,0V133Z"/><rect class="cls-1" x="233.5" y="171" width="2.8" height="3.88"/><path class="cls-1" d="M233.5,174.9v4.3c0-1.2.6-2.2,1.4-2.2s1.4,1,1.4,2.2v-4.3Z"/><rect class="cls-1" x="114.6" y="170.3" width="4.3" height="12.51"/><rect class="cls-1" x="302.4" y="166.6" width="4.2" height="21.28"/><ellipse class="cls-1" cx="304.5" cy="187.8" rx="2.1" ry="2.2"/><rect class="cls-1" x="310.5" y="174.2" width="5.4" height="21.28"/><ellipse class="cls-1" cx="313.3" cy="195.5" rx="2.7" ry="2.9"/><path class="cls-1" d="M306.3,179.3v4.3a2.2,2.2,0,1,1,4.3,0v-4.3Z"/><rect class="cls-1" x="306.1" y="166.7" width="4.3" height="12.51"/><rect class="cls-1" x="289.1" y="174.2" width="2.9" height="21.28"/><ellipse class="cls-1" cx="290.6" cy="195.5" rx="1.5" ry="2.9"/><path class="cls-1" d="M286.8,179.3v4.3c0-1.2.5-2.1,1.2-2.1s1.1.9,1.1,2.1v-4.3Z"/><rect class="cls-1" x="286.8" y="166.8" width="2.3" height="12.51"/></g><g id="S-2"><polygon class="cls-1" points="22.7 88.6 22.7 53.8 37 55.1 37 80.1 22.7 88.6"/><polygon class="cls-3" points="22.7 88.6 22.7 53.8 37 55.1 37 80.1 22.7 88.6"/><polygon class="cls-1" points="83.8 142.8 83.8 107.4 69 108.1 69 134.1 83.8 142.8"/><polygon class="cls-3" points="83.8 142.8 83.8 107.4 69 108.1 69 134.1 83.8 142.8"/><polygon class="cls-2" points="98.7 25 98.7 45.2 52.7 70.7 22.7 53.8 22.7 88.5 53 107.2 98.7 81.7 98.7 153.9 53 180.3 6.8 152.4 6.8 133.7 52.7 161.1 83.8 142.8 83.8 107.4 52.7 125.9 6.8 98.6 6.8 25.5 52.7 51.4 98.7 25"/><polygon class="cls-3" points="98.7 45.2 52.7 70.7 52.7 51.4 98.7 25 98.7 45.2"/><polygon class="cls-3" points="53 107.2 52.7 125.9 83.8 107.4 83.8 142.8 52.7 161.1 53 180.3 98.7 153.9 98.7 81.7 53 107.2"/><polygon class="cls-1" points="21.6 17 52.7 35.1 83.8 17 98.7 25 52.7 51.4 6.8 25.5 21.6 17"/><polygon class="cls-1" points="37 80.1 53.2 89.1 83.7 72.6 98.7 81.7 53 107.2 22.7 88.5 37 80.1"/><polygon class="cls-1" points="22.7 124.6 52.7 142.8 69 134.1 83.8 142.8 52.7 161.1 6.8 133.7 22.7 124.6"/><rect class="cls-2" x="15.5" y="157.6" width="4.3" height="21.28"/><circle class="cls-2" cx="17.6" cy="178.8" r="2.2"/><rect class="cls-2" x="24.1" y="162.4" width="4.3" height="36.51"/><circle class="cls-2" cx="26.3" cy="198.9" r="2.2"/><path class="cls-2" d="M11.1,170.3v4.3a2.2,2.2,0,0,1,4.4,0v-4.3Z"/><rect class="cls-2" x="19.8" y="159.2" width="4.3" height="8.17"/><path class="cls-2" d="M19.8,167.4v4.4a2.2,2.2,0,0,1,2.2-2.2,2.1,2.1,0,0,1,2.1,2.2v-4.4Z"/><rect class="cls-2" x="28.5" y="165.4" width="4.3" height="8.17"/><path class="cls-2" d="M28.5,173.6v4.3a2.1,2.1,0,0,1,2.1-2.1,2.1,2.1,0,0,1,2.2,2.1v-4.3Z"/><rect class="cls-2" x="6.8" y="150.4" width="4.3" height="56.07"/><rect class="cls-2" x="11.1" y="153.9" width="4.3" height="16.35"/></g></svg>