<svg xmlns="http://www.w3.org/2000/svg" viewBox="0 0 440.1 221.7"><defs><style>.cls-1{fill:#d74898;}.cls-2{fill:#03ffc4;}.cls-3{opacity:0.2;}.cls-4{fill:none;}</style></defs><title>snfp</title><g id="N-2"><polygon class="cls-1" points="320 27.6 306.7 35.2 291.9 26.5 306.7 18 320 27.6"/><rect class="cls-2" x="291.7" y="168.8" width="4.2" height="38.35"/><ellipse class="cls-2" cx="293.8" cy="207.1" rx="2.1" ry="2.2"/><rect class="cls-2" x="300.1" y="163" width="6.6" height="51.96"/><ellipse class="cls-2" cx="303.4" cy="214.9" rx="3.3" ry="3.7"/><rect class="cls-2" x="295.9" y="166.8" width="4.2" height="10.41"/><path class="cls-2" d="M295.9,176.4v4.4a2.1,2.1,0,1,1,4.2,0v-4.4Z"/><path class="cls-3" d="M300.1,163v3.8h-4.2v1.9h-4.2v38.4a2.1,2.1,0,0,0,2.1,2.1,2.1,2.1,0,0,0,2.1-2.1V180.8a2.1,2.1,0,1,1,4.2,0v34.1a3.3,3.3,0,1,0,6.6,0V163Z"/><polygon class="cls-2" points="291.7 173.8 291.9 26.5 306.7 35.1 306.7 182.2 291.7 173.8"/><polygon class="cls-3" points="291.7 173.8 291.9 26.5 306.7 35.2 306.7 182.2 291.7 173.8"/><polygon class="cls-1" points="306.7 182.2 306.7 128.5 291.7 135.9 291.7 118.9 306.7 112.2 306.7 35.2 320 27.6 320 175.2 306.7 182.2"/><polygon class="cls-1" points="248.7 36.7 263.5 27.6 263.5 46.3 248.7 55.9 248.7 36.7"/><polygon class="cls-1" points="248.7 55.9 263.5 46.3 292.2 103.5 306.7 112.2 291.7 118.9 278.1 111.8 248.7 55.9"/><polygon class="cls-3" points="248.7 55.9 263.5 46.3 292.2 103.5 306.7 112.2 291.7 118.9 278.1 111.8 248.7 55.9"/><polygon class="cls-1" points="263.5 27.6 248.7 36.7 233.9 26.5 249.2 18 263.5 27.6"/><path class="cls-1" d="M248.8,88.2v94h0v17.9h.1a1.4,1.4,0,0,0,2.8,0h0V188.8a2.7,2.7,0,0,1,2.8-2.2c1.5,0,2.8,1,2.8,2.2v6.5a2.1,2.1,0,0,0,2.1,2.2,2.2,2.2,0,0,0,2.2-2.2V179.2c0-1.2.6-2.2,1.4-2.2s1.4,1,1.4,2.2v-91Z"/></g><g id="P-2"><polygon class="cls-1" points="388.8 50.5 388.8 32.2 417.9 49.9 417.9 90.1 403.3 80.2 403.3 59.7 388.8 50.5"/><polygon class="cls-2" points="388.8 50.5 388.8 32.2 359.9 49.5 359.9 87.5 374.8 78.7 374.8 59.3 388.8 50.5"/><polygon class="cls-2" points="346.4 41.8 389.2 16.6 432.1 41.2 417.9 49.9 388.8 32.2 359.9 49.5 346.4 41.8"/><polygon class="cls-3" points="346.4 41.8 389.2 16.6 432.1 41.2 417.9 49.9 388.8 32.2 359.9 49.5 346.4 41.8"/><polygon class="cls-2" points="359.9 87.5 374.8 78.7 388.9 89.5 403.3 80.2 417.9 90.1 403.2 98.1 374.4 98.1 359.9 87.5"/><polygon class="cls-3" points="359.8 87.5 374.7 78.7 388.8 89.5 403.2 80.2 417.8 90.1 403.1 98.1 374.2 98.1 359.8 87.5"/><polygon class="cls-4" points="426.8 90.3 426.8 90 426.7 90.3 426.8 90.3"/><path class="cls-2" d="M417.9,49.9V90.1l-14.7,8v13.3h0v12.5h0v4.4a2.1,2.1,0,0,1,2.1-2.2,2.2,2.2,0,0,1,2.2,2.2v14a2.1,2.1,0,0,0,2.2,2.1,2.1,2.1,0,0,0,2.1-2.1V125a2.2,2.2,0,1,1,4.4,0v4.5h0a.9.9,0,0,0,.9,1,.9.9,0,0,0,1-1h-.1V105.7h.1v4.5a2.1,2.1,0,0,1,2.1-2.1,2.1,2.1,0,0,1,2.2,2.1v1.8h0a2,2,0,0,0,.1.7,2.3,2.3,0,0,0,2.7,1.4,2.1,2.1,0,0,0,1.5-2.1h0V100.8a1.8,1.8,0,1,1,3.6,0V83.5h.1v22.4h0a.9.9,0,0,0,.8,1,1,1,0,0,0,.8-1h0V41.2Zm8.9,40.4h-.1v0Z"/></g><g id="F-2"><polygon class="cls-2" points="147.6 32.4 170.2 17.3 183.3 26.3 197.5 17.7 212.9 26.6 184.1 42.9 170.3 34.7 155.1 44.1 147.6 32.4"/><polygon class="cls-3" points="147.6 32.4 170.2 17.3 183.3 26.3 197.5 17.7 212.9 26.6 184.1 42.9 170.3 34.7 155.1 44.1 147.6 32.4"/><polygon class="cls-2" points="155.1 80.2 155.1 26.3 140.2 33.8 140.2 89.1 155.1 80.2"/><polygon class="cls-2" points="170.2 53.4 170.3 34.7 155.1 44.1 155.1 62.5 170.2 53.4"/><polygon class="cls-2" points="212.9 44.3 212.9 26.6 184.1 42.9 184.1 62.5 212.9 44.3"/><polygon class="cls-1" points="170.2 53.4 170.2 34.7 184.1 42.9 184.1 62.5 170.2 53.4"/><polygon class="cls-2" points="126.6 25.2 140.8 15.8 155.1 26.3 140.2 33.8 126.6 25.2"/><polygon class="cls-2" points="140.2 89.1 155.1 80.2 169.6 90.5 184.7 81.2 199 90.5 184.1 99.9 157.1 99.9 140.2 89.1"/><polygon class="cls-3" points="140.2 89.1 155.1 80.2 169.6 90.5 184.7 81.2 199 90.5 184.1 99.9 157.1 99.9 140.2 89.1"/><rect class="cls-2" x="246.8" y="179.8" width="1.9" height="1.89"/><path class="cls-2" d="M184.1,99.9v28.8a2.2,2.2,0,0,1,4.4,0v6.5h0a2.2,2.2,0,0,0,2.1,2,2.2,2.2,0,0,0,2.2-2h0V114.1h0v4.4a2.2,2.2,0,0,1,2.2-2.2,2.1,2.1,0,0,1,2.1,2.2v24.9a1.1,1.1,0,0,0,1,1,1,1,0,0,0,.9-1V90.5Z"/><path class="cls-2" d="M359.9,106.6v86.6a2.2,2.2,0,0,1,4.4,0v14a2.1,2.1,0,0,0,2.1,2.2,2.2,2.2,0,0,0,2.2-2.2V189.9a2.1,2.1,0,0,1,2.2-2.1,2.1,2.1,0,0,1,2.1,2.1v-4.2h0V173.9h0v21.3h0a1,1,0,0,0,1,1,.9.9,0,0,0,1-1h0V106.6Z"/><polygon class="cls-4" points="246.9 181.7 247.9 181.7 246.9 181 246.9 181.7"/><polygon class="cls-4" points="289.8 134.9 290 134.9 289.8 134.8 289.8 134.9"/><path class="cls-2" d="M291.7,134.9v-16l-13.6-7.1L248.7,55.9V36.7L233.9,26.5V200.4a2.2,2.2,0,0,0,2.2,2.2,2.1,2.1,0,0,0,2.1-2.2V179.5a2.2,2.2,0,0,1,2.2-2.2,2.1,2.1,0,0,1,2.1,1.7v27.2a2.2,2.2,0,0,0,4.4,0V183.6a.9.9,0,1,1,1.8,0v-1.9h0V93.2l14.8,11.1v15.8l.8.4v62a.9.9,0,0,0,.9,1,.9.9,0,0,0,1-1V121.6h0v21.5a2.2,2.2,0,0,1,2.2-2.2,2.1,2.1,0,0,1,2.1,2.2v6.5h.1a2.1,2.1,0,0,0,4.2,0h.1V126.4h0v12.9a2.1,2.1,0,0,1,2.1-2.2,2.2,2.2,0,0,1,2.2,2.2v22a2.2,2.2,0,0,0,2.2,2.2,2.1,2.1,0,0,0,2.1-2.2V131.3h.1v14.9a2.1,2.1,0,0,1,2.1-2.2,2.2,2.2,0,0,1,2.2,2.2v8h0a1,1,0,1,0,1.9,0h0v-2.7c0-1.2.4-2.2.9-2.2s1,1,1,2.2V134.9Zm-44.8,46.8V181l1,.7Zm42.9-46.8h0Z"/><path class="cls-2" d="M155.4,212V106.7H140.5v70.5h0V194a2.1,2.1,0,0,1,2.1-2.1,2.2,2.2,0,0,1,2.2,2.1v14.1a2.1,2.1,0,0,0,2.2,2.1,2.1,2.1,0,0,0,2.1-2.1V190.8a2.2,2.2,0,1,1,4.4,0v-4.2h0V212h0a.9.9,0,0,0,.9.9,1,1,0,0,0,1-.9Z"/><polygon class="cls-4" points="135 177.8 135 177.8 135 177.7 135 177.8"/><path class="cls-1" d="M157.1,99.9,140.2,89.1V33.8l-13.6-8.6V191.4a2.1,2.1,0,0,0,2.2,2.1,2.1,2.1,0,0,0,2.1-2.1v-5.3a2.1,2.1,0,0,1,1.9-1.1,2.1,2.1,0,0,1,2.1,1.7V199a2.8,2.8,0,1,0,5.6,0V106.7l14.9,9.9v22.3a2.5,2.5,0,0,1,2.7-2.2c1.6,0,2.8,1,2.8,2.2v6.6a2.1,2.1,0,0,0,2.2,2.1,2.1,2.1,0,0,0,2.1-2.1V125.3c0-1.2,1.3-2.2,2.8-2.2s2.8,1,2.8,2.2v23.5a2.2,2.2,0,1,0,4.3,0V136.6a2.6,2.6,0,0,1,2.4-1.5,2.4,2.4,0,0,1,2.5,2.2V150h0a2.1,2.1,0,0,0,4.1,0h0V99.9ZM135,177.8h0Z"/><polygon class="cls-4" points="354.5 179.3 354.5 179.3 354.5 178.7 354.5 178.6 354.5 179.3"/><path class="cls-1" d="M403.2,111.3V98.1H374.4L359.9,87.5v-38l-13.5-7.7v146a2.1,2.1,0,1,0,4.2,0v-5.3a2.4,2.4,0,0,1,1.9-1.1,2,2,0,0,1,2,1.8v12.3a2.9,2.9,0,0,0,2.8,2.9,2.8,2.8,0,0,0,2.7-2.9V174.2h-.1V106.6l14.9,10.1h.1v16c0-1.2,1.3-2.2,2.8-2.2a2.9,2.9,0,0,1,2.7,1.6v12.6a2.1,2.1,0,0,0,2.1,2.1,2.1,2.1,0,0,0,2.2-2.1V124.5c0-1.2,1.2-2.2,2.8-2.2a2.5,2.5,0,0,1,2.7,2.2V136h0a1.5,1.5,0,1,0,3,0h0v-3c0-1.1,1.3-2.1,2.8-2.1s2.8,1,2.8,2.1v6.6a2.1,2.1,0,0,0,2.2,2.1,2.2,2.2,0,0,0,2.3-2.1V111.3Zm-48.7,68h0v-.7h0Z"/><path class="cls-1" d="M317.1,174.2v-7.4h-2.3v9.5h-3.5v-1.9h-4.6V198a2.3,2.3,0,0,1,4.6,0v6.6a1.8,1.8,0,1,0,3.6,0V182.9c.1-.8.6-1.4,1.1-1.4s1,.7,1.1,1.7v12.3c0,1.6.6,3,1.5,3s1.4-1.4,1.4-3V174.2Z"/></g><g id="S-2"><polygon class="cls-1" points="22.7 88.6 22.7 53.8 37 55.1 37 80.1 22.7 88.6"/><polygon class="cls-3" points="22.7 88.6 22.7 53.8 37 55.1 37 80.1 22.7 88.6"/><polygon class="cls-1" points="83.8 142.8 83.8 107.4 69 108.1 69 134.1 83.8 142.8"/><polygon class="cls-3" points="83.8 142.8 83.8 107.4 69 108.1 69 134.1 83.8 142.8"/><polygon class="cls-3" points="98.7 45.2 52.7 70.7 52.7 51.4 98.7 25 98.7 45.2"/><polygon class="cls-4" points="41.4 173.3 41.4 173.4 41.5 173.4 41.4 173.3"/><polygon class="cls-4" points="32.8 168.1 32.8 168.1 32.8 168.1 32.8 168.1"/><path class="cls-2" d="M53,197.1v-4.3h0V180.3h0l-.3-19.2L6.8,133.7v72.8A2.1,2.1,0,0,0,9,208.6a2.1,2.1,0,0,0,2.1-2.1V174.6a2.2,2.2,0,0,1,4.4,0v4.2a2.1,2.1,0,0,0,2.1,2.2,2.2,2.2,0,0,0,2.2-2.2v-7a2.2,2.2,0,0,1,2.2-2.2,2.1,2.1,0,0,1,2.1,2.2v27.1a2.2,2.2,0,0,0,4.4,0V173.6h0v4.3a2.1,2.1,0,0,1,2.1-2.1,2.2,2.2,0,0,1,2.2,1.7v27.1a2.1,2.1,0,0,0,2.1,2.2,2.2,2.2,0,0,0,2.2-2.2V184.2h0v4.4a2.2,2.2,0,0,1,2.2-2.2,2.1,2.1,0,0,1,2.1,2.2v8.6h0a2.2,2.2,0,0,0,4.4,0h0V184a2.1,2.1,0,0,1,2.1-2.2,2.2,2.2,0,0,1,2.2,2.2v14h0c0,1.2.7,2.1,1.4,2.1s1.5-.9,1.5-2.1h0v-.9Zm-20.2-29Zm8.6,5.3h0Z"/><path class="cls-2" d="M85.3,200.1a2.1,2.1,0,0,1-2.2-2.1h0a2.2,2.2,0,0,0,2.2,2.2,2.1,2.1,0,0,0,2.1-2.2h0A2.1,2.1,0,0,1,85.3,200.1Z"/><path class="cls-2" d="M98.7,205.9h0Z"/><path class="cls-2" d="M91.8,205.9Z"/><path class="cls-2" d="M57.2,196.4l-.2-.5Z"/><path class="cls-2" d="M57.3,197v0Z"/><path class="cls-2" d="M53.3,196v0Z"/><path class="cls-2" d="M70.1,190.4v.4a2.2,2.2,0,0,1,2.2-2.2h0A2.3,2.3,0,0,0,70.1,190.4Z"/><path class="cls-2" d="M68,205.9a2,2,0,0,1-1.4-.5,2,2,0,0,0,1.4.5,2.2,2.2,0,0,0,2-1.4A2.2,2.2,0,0,1,68,205.9Z"/><path class="cls-2" d="M78.8,192.7Z"/><path class="cls-2" d="M74.4,192.7Z"/><path class="cls-2" d="M76.6,194.9a2.2,2.2,0,0,1-2.2-2.1h0a2.2,2.2,0,0,0,4.4,0h0A2.2,2.2,0,0,1,76.6,194.9Z"/><path class="cls-3" d="M65.8,185.2h0v18.5a3,3,0,0,0,.2,1,3,3,0,0,1-.2-1Z"/><path class="cls-3" d="M65.8,185.2a2.1,2.1,0,0,0-.7-1.1A2.6,2.6,0,0,1,65.8,185.2Z"/><path class="cls-3" d="M98.5,206.9a3,3,0,0,1-.4,1A3,3,0,0,0,98.5,206.9Z"/><path class="cls-3" d="M92.4,207.9a3.1,3.1,0,0,1-.5-1A3.1,3.1,0,0,0,92.4,207.9Z"/><path class="cls-3" d="M62.4,184.1a2.6,2.6,0,0,0-.7,1.1A2.6,2.6,0,0,1,62.4,184.1Z"/><path class="cls-3" d="M72.3,188.6h0a2.1,2.1,0,0,1,2.1,2.2v-.4A2.1,2.1,0,0,0,72.3,188.6Z"/><path class="cls-3" d="M58.3,212.2a2.4,2.4,0,0,0,1.2.3,2.1,2.1,0,0,0,1.2-.3,2.1,2.1,0,0,1-1.2.3A2.4,2.4,0,0,1,58.3,212.2Z"/><polygon class="cls-3" points="98.7 153.9 98.7 153.9 98.6 153.9 98.7 153.9"/><path class="cls-3" d="M55.2,194.9a2.3,2.3,0,0,0-1.6.6,2.3,2.3,0,0,1,1.6-.6,2.1,2.1,0,0,1,1.7.8A2.1,2.1,0,0,0,55.2,194.9Z"/><path class="cls-3" d="M74.4,192.7Z"/><path class="cls-3" d="M57.3,177.8v14.9h0v4h0V177.8Z"/><path class="cls-3" d="M78.8,192.8h0Z"/><polygon class="cls-2" points="52.7 70.7 98.7 45.2 98.7 25 52.7 51.4 6.8 25.5 6.8 98.6 52.7 125.9 53 107.2 22.7 88.5 22.7 53.8 52.7 70.7"/><path class="cls-2" d="M83.8,107.4v35.4L52.7,161.1l.3,19.2h0v12.4h0v3.8c.1-.1.1-.3.2-.4V196l.3-.5a2.3,2.3,0,0,1,1.6-.6,2.1,2.1,0,0,1,1.7.8H57l.2.5h.1v-3.7h0V177.8h0v32.6c0,.1.1.3.1.4a2.4,2.4,0,0,0,.6,1.1l.3.3a2.4,2.4,0,0,0,1.2.3,2.1,2.1,0,0,0,1.2-.3l.3-.3a1.7,1.7,0,0,0,.6-1.1.6.6,0,0,0,.1-.4V185.2a2.6,2.6,0,0,1,.7-1.1h2.7a2.1,2.1,0,0,1,.7,1.1h0v18.5a3,3,0,0,0,.2,1l.2.3.4.4a2,2,0,0,0,1.4.5,2.2,2.2,0,0,0,2-1.4c0-.1.1-.2.1-.3V190.4a2.3,2.3,0,0,1,2.2-1.8h0a2.1,2.1,0,0,1,2.1,1.8v2.3h0a2.2,2.2,0,0,0,4.4,0h0v-9.9a2.1,2.1,0,0,1,2.1-2.2,2.2,2.2,0,0,1,2.2,2.2V198a2.1,2.1,0,0,0,2.2,2.1,2.1,2.1,0,0,0,2.1-2.1V171.7a2.2,2.2,0,0,1,4.4,0v34.1h0a3.4,3.4,0,0,0,.1,1,3.1,3.1,0,0,0,.5,1,2.1,2.1,0,0,0,.4.6l1.1.8,1.3.2,1.4-.2,1.1-.8.4-.6a3,3,0,0,0,.4-1,3.6,3.6,0,0,0,.2-1h0V153.9h0V81.7L53,107.2l-.3,18.7Z"/><path class="cls-3" d="M83.8,107.4v35.4L52.7,161.1l.3,19.2h0v12.4h0v3.8c.1-.1.1-.3.2-.4V196l.3-.5a2.3,2.3,0,0,1,1.6-.6,2.1,2.1,0,0,1,1.7.8H57l.2.5h.1v-3.7h0V177.8h0v32.6c0,.1.1.3.1.4a2.4,2.4,0,0,0,.6,1.1l.3.3a2.4,2.4,0,0,0,1.2.3,2.1,2.1,0,0,0,1.2-.3l.3-.3a1.7,1.7,0,0,0,.6-1.1.6.6,0,0,0,.1-.4V185.2a2.6,2.6,0,0,1,.7-1.1h2.7a2.1,2.1,0,0,1,.7,1.1h0v18.5a3,3,0,0,0,.2,1l.2.3.4.4a2,2,0,0,0,1.4.5,2.2,2.2,0,0,0,2-1.4c0-.1.1-.2.1-.3V190.4a2.3,2.3,0,0,1,2.2-1.8h0a2.1,2.1,0,0,1,2.1,1.8v2.3h0a2.2,2.2,0,0,0,4.4,0h0v-9.9a2.1,2.1,0,0,1,2.1-2.2,2.2,2.2,0,0,1,2.2,2.2V198a2.1,2.1,0,0,0,2.2,2.1,2.1,2.1,0,0,0,2.1-2.1V171.7a2.2,2.2,0,0,1,4.4,0v34.1h0a3.4,3.4,0,0,0,.1,1,3.1,3.1,0,0,0,.5,1,2.1,2.1,0,0,0,.4.6l1.1.8,1.3.2,1.4-.2,1.1-.8.4-.6a3,3,0,0,0,.4-1,3.6,3.6,0,0,0,.2-1h0V153.9h0V81.7L53,107.2l-.3,18.7Z"/><polygon class="cls-1" points="21.6 17 52.7 35.1 83.8 17 98.7 25 52.7 51.4 6.8 25.5 21.6 17"/><polygon class="cls-1" points="37 80.1 53.2 89.1 83.7 72.6 98.7 81.7 53 107.2 22.7 88.5 37 80.1"/><polygon class="cls-1" points="22.7 124.6 52.7 142.8 69 134.1 83.8 142.8 52.7 161.1 6.8 133.7 22.7 124.6"/></g></svg>