<svg xmlns="http://www.w3.org/2000/svg" viewBox="0 0 387.5 218.6"><defs><style>.cls-1{fill:#02ffc9;}.cls-2{fill:#01ffc4;}.cls-3{fill:#d74898;}.cls-4{fill:#01fec5;}.cls-5{fill:#03ffc4;}</style></defs><title>sfnp</title><g id="asset"><line class="cls-1" x1="86.6" y1="111.1" x2="17.2" y2="174"/><path class="cls-1" d="M89.8,111.1" transform="translate(-3.2)"/><polyline class="cls-2" points="146.4 125.5 146.4 161.4 150.5 161.4 150.5 139.2 154.9 139.2 154.9 152.1 159.2 152.1 159.2 132.6"/><polygon class="cls-3" points="159.2 152.1 159.9 152.1 159.9 133.9 164.9 133.9 164.9 147.8 169.2 147.8 169.2 141.1 174.3 141.1 174.3 153 175.3 153 175.3 123.8 159.2 123.8 159.2 152.1"/><polyline class="cls-3" points="197.5 170.5 197.5 201.4 201.8 201.4 201.8 184 207 184 207 197 211.6 197 211.6 179.5 211.6 170.5 197.5 170.5"/><polyline class="cls-4" points="211.6 179.5 211.6 191.2 216.4 191.2 216.4 201.9 221 201.9 221 176 226.3 176 226.3 210.4 230.5 210.4 230.5 168.8"/><polyline class="cls-3" points="230.4 110.1 230.4 163.4 233.5 163.4 233.5 173.4 238.5 173.4 238.5 147.6 243.4 147.6 243.4 182.8 248.1 182.8 248.1 164.6 252.9 164.6 252.9 176.7 257.6 176.7 257.6 154 258.3 154 258.3 140.1 258.3 110.1 230.4 110.1"/><polyline class="cls-4" points="258.3 152.8 258.3 154 262.1 154 262.1 171.5 266.9 171.5 266.9 161.4 272.2 161.4 272.2 182 276.9 182 276.9 142.7 258.3 142.7 258.3 152.8"/></g><g id="P"><polyline class="cls-3" points="364.1 128.2 379.7 116.7 371.4 116.7 364.1 128.2"/><polygon class="cls-3" points="370.1 120.6 370.1 173.9 374.5 173.9 374.5 146.8 379.3 146.8 379.3 158.7 383.5 158.7 383.5 130.5 387.5 130.5 387.5 89.5 370.1 89.5 370.1 120.6"/><path class="cls-3" d="M386.3,66.1c-5.6-15.3-15.5-30.2-28.5-38.9a172.7,172.7,0,0,0-24.4-14.1L316,5V154.2l25.1,14.2s0-58,0-58,4.6,3.3,5.3,3.8a45.9,45.9,0,0,0,5.9,3.4c3.4,1.6,6.9,2,10.6,2.4s8.2.9,12.3.1a16.7,16.7,0,0,0,9.5-5.2c3.8-4.3,5.2-9.9,5.7-15.6.2-2.9.2-5.8.2-8.6s.1-8.3-.8-12.5A93,93,0,0,0,386.3,66.1Zm-21,19.3c-1.7,4.6-5.9,7-10.6,7.6a14.5,14.5,0,0,1-9.2-1.4c-.7-.4-4.8-2.5-4.8-3.2v-48l5.7,2.8C361.1,49.9,371,69.8,365.3,85.4Z" transform="translate(-3.2)"/><path class="cls-5" d="M371.5,77.3C365.8,62,356,47.1,343,38.3a172.7,172.7,0,0,0-24.4-14.1l-17.4-8.1V165.3l25.1,14.2s0-58,0-58,4.6,3.3,5.3,3.8a45.9,45.9,0,0,0,5.9,3.4c3.4,1.6,6.9,2,10.6,2.4s8.2.9,12.3.1A16.7,16.7,0,0,0,370,126c3.8-4.3,5.2-9.9,5.7-15.6.2-2.9.2-5.8.2-8.6s.1-8.3-.8-12.5A93,93,0,0,0,371.5,77.3Zm-21,19.3c-1.7,4.6-5.9,7-10.6,7.6a14.5,14.5,0,0,1-9.2-1.4c-.7-.4-4.8-2.5-4.8-3.2v-48l5.7,2.8C346.2,61.1,356.2,80.9,350.4,96.5Z" transform="translate(-3.2)"/><polygon class="cls-3" points="323.1 179.5 337.9 168.3 323.1 151.1 323.1 179.5"/><polygon class="cls-3" points="297.9 16.1 312.8 5 315.3 24.2 297.9 16.1"/><polyline class="cls-5" points="297.9 165.3 297.9 191.3 302.5 191.3 302.5 183.2 307.1 183.2 307.1 211.5 312.1 211.5 312.1 183.6 317 183.6 317 205.2 321.6 205.2 321.6 188.4 323.1 188.4 323.1 165.3 297.9 165.3"/><polyline class="cls-3" points="323.1 146.8 323.1 188.4 326.2 188.4 326.2 218.6 331.2 218.6 331.2 200.4 335.9 200.4 335.9 213.9 337.9 213.9 337.9 168.3"/><polygon class="cls-5" points="337.9 213.9 340.5 213.9 340.5 143.1 345.1 143.1 345.1 154.4 350.6 154.4 350.6 133.1 355 133.1 355 164.1 359.3 164.1 359.3 141.8 365 141.8 365 154.3 370.1 154.3 370.1 111.3 337.9 111.3 337.9 120.6 337.9 213.9"/></g><g id="N"><polygon class="cls-3" points="197.5 170.5 216.3 159.8 216.3 76 244.3 143.8 262.8 133.8 262.8 0 244 11.6 244 98 214.1 30.1 197.5 39.9 197.5 170.5"/><polyline class="cls-3" points="244.3 143.8 258.3 152.8 251.3 130.8 244.3 143.4"/><polygon class="cls-4" points="211.6 179.5 230.4 168.8 230.4 85 258.3 152.8 276.9 142.7 276.9 9 258 20.6 258 106.9 228.2 39.1 211.6 48.9 211.6 179.5"/><polygon class="cls-3" points="211.6 179.5 197.5 170.5 211.6 160.2 211.6 179.5"/><polygon class="cls-3" points="214.1 30.1 228.2 39.1 217.3 45.5 214.1 30.1"/><polygon class="cls-3" points="276.9 9 262.8 0 260.9 18.8 276.9 9"/></g><g id="F"><polyline class="cls-3" points="130.3 179.5 146.4 170.7 130.3 158.1"/><polyline class="cls-3" points="159.2 132.6 159.2 110.8 175.3 123.8 159.2 132.6"/><polyline class="cls-3" points="161.5 71.8 161.5 49.4 177.6 63 161.5 71.8"/><polygon class="cls-3" points="104.8 12.2 120.9 3.4 120.9 21.6 104.8 12.2"/><polygon class="cls-3" points="120.9 155.8 146.4 170.7 146.4 108 175.3 123.8 175.3 99.8 146.9 84.6 147.1 45 177.6 63 177.6 36.8 120.9 3.4 120.9 155.8"/><polygon class="cls-2" points="104.8 164.5 130.3 179.5 130.3 116.7 159.2 132.6 159.2 108.5 130.9 93.3 131 53.7 161.5 71.8 161.5 45.5 104.8 12.2 104.8 164.5"/><polygon class="cls-2" points="104.8 164.5 104.8 203.5 109.2 203.5 109.2 181.2 114.2 181.2 114.2 211.7 119 211.7 119 191 123.3 191 123.3 204.2 128.8 204.2 128.8 184 130.3 184 130.3 176.4 130.3 164.5 104.8 164.5"/><polygon class="cls-3" points="130.3 184 133.2 184 133.2 200.2 137.9 200.2 137.9 176.6 142.4 176.6 142.4 207.2 146.4 207.2 146.4 170.7 130.3 170.7 130.3 184"/></g><g id="S"><line class="cls-3" x1="2.5" y1="167.5" x2="17.8" y2="176.2"/><polyline class="cls-3" points="17.8 176.2 17.8 162.6 2.5 167.5"/><polyline class="cls-3" points="58.2 64.3 73.7 73.1 58.7 71"/><polyline class="cls-3" points="17 100.2 31.2 108.4 18.7 95.3 17 100.2"/><polyline class="cls-3" points="66.2 2.3 81.5 11.1 55.8 16.3 66.2 2.3"/><path class="cls-3" d="M63.1,31c2.1-9.4,5.3-19.2,6.3-28.7-9.2,0-17.5.7-25.7,5.2S28.1,19,21.9,26.3,9.4,41.8,6.4,51.7A78.3,78.3,0,0,0,3.2,73.4c0,5.5,1,13.7,5.1,17.7s10.9,10.7,17.2,10l9-1.1a8.1,8.1,0,0,1,7.7,4.2,13.8,13.8,0,0,1,1,4.4c.5,5.6-.2,10.8-3.6,15.4s-9.8,5.4-14.6,6.3a38,38,0,0,1-11.4.2c-1.9-.2-4.2-1-6.2-.9s-1.9.5-1.9,2c-.1,3-1.8,35.6.2,35.9,10.7,1.5,21-1.9,30-7.6a96.7,96.7,0,0,0,25.2-23.1c5-6.6,10-13.9,12.2-22.1s1.4-16.1.9-24.1c-.9-12.6-4-26.1-18.8-28a83.1,83.1,0,0,0-8.6-.3,17.6,17.6,0,0,1-8.3-1.9C34.2,58,33.3,54,34.9,49.8A29,29,0,0,1,54.4,32.3C55.1,32,63.1,31,63.1,31Z" transform="translate(-3.2)"/><polyline class="cls-3" points="1.8 164.1 1.8 192.6 6.8 192.6 6.8 179 11.7 179 11.7 194.4 16.1 194.4 16.1 179.9 17.7 179.9 17.7 176.1 17.7 164.1 1.8 164.1"/><path class="cls-1" d="M78.4,39.8c2.1-9.4,5.3-19.2,6.3-28.7-9.2,0-17.5.7-25.7,5.2S43.4,27.7,37.2,35.1,24.7,50.6,21.8,60.4a78.3,78.3,0,0,0-3.2,21.7c0,5.5,1,13.7,5.1,17.7s10.9,10.7,17.2,10l9-1.1a8.1,8.1,0,0,1,7.7,4.2,13.8,13.8,0,0,1,1,4.4c.5,5.6-.2,10.8-3.6,15.4s-9.8,5.4-14.6,6.3a38,38,0,0,1-11.4.2c-1.9-.2-4.2-1-6.2-.9s-1.9.5-1.9,2c-.1,3-1.8,35.6.2,35.9,10.7,1.5,21-1.9,30-7.6a96.7,96.7,0,0,0,25.2-23.1c5-6.6,10-13.9,12.2-22.1s1.4-16.1.9-24.1c-.9-12.6-4-26.1-18.8-28a83.1,83.1,0,0,0-8.6-.3,17.6,17.6,0,0,1-8.3-1.9c-4.1-2.4-4.9-6.3-3.4-10.5A29,29,0,0,1,69.7,41C70.4,40.8,78.4,39.7,78.4,39.8Z" transform="translate(-3.2)"/><polygon class="cls-1" points="16.9 168.7 16.8 179.9 21 179.9 21 187.2 26 187.2 26 180.1 31.2 180.1 31.2 200.8 35.5 200.8 35.5 183.9 40.1 183.9 40.1 188.6 44.9 188.6 44.9 178.2 49.7 178.2 49.7 195.1 54.5 195.1 54.5 175.1 59.3 175.1 59.3 201.7 64.2 201.7 64.2 166.9 69.1 166.9 69.1 183.2 73.4 183.2 73.4 163.8 73.4 149.1 78.3 149.1 78.3 165.3 82.3 165.3 82.3 140.6 86.7 140.6 86.7 111.1 16.9 168.7"/></g></svg>