<?xml version="1.0" standalone="no"?>
<!DOCTYPE svg PUBLIC "-//W3C//DTD SVG 20010904//EN"
 "http://www.w3.org/TR/2001/REC-SVG-20010904/DTD/svg10.dtd">
<svg version="1.0" xmlns="http://www.w3.org/2000/svg"
 width="150.000000pt" height="150.000000pt" viewBox="0 0 150.000000 150.000000"
 preserveAspectRatio="xMidYMid meet">
<metadata>
Created by potrace 1.11, written by Peter Selinger 2001-2013
</metadata>
<g transform="translate(0.000000,150.000000) scale(0.100000,-0.100000)"
fill="#000000" stroke="none">
<path d="M0 750 l0 -750 750 0 750 0 0 750 0 750 -750 0 -750 0 0 -750z m932
691 c89 -23 160 -57 243 -116 72 -51 109 -90 164 -169 44 -63 48 -76 28 -76
-7 0 -31 -9 -52 -20 -22 -11 -41 -16 -43 -12 -1 5 -9 18 -16 28 -13 17 -17 17
-41 4 -56 -30 -160 -132 -319 -310 -52 -59 -53 -61 38 93 69 116 106 194 106
220 0 57 -50 61 -163 12 -44 -19 -83 -35 -85 -35 -3 0 3 10 14 22 18 21 18 21
-15 -2 -30 -20 -34 -21 -42 -7 -20 35 -174 29 -361 -14 -78 -18 -92 -25 -121
-59 -18 -21 -38 -55 -46 -75 -19 -53 -5 -63 60 -42 28 10 58 17 65 17 8 0 14
5 14 10 0 6 -17 10 -37 11 l-38 0 52 19 c57 20 214 49 281 52 76 3 74 -29 -12
-162 l-46 -70 -46 0 c-55 0 -166 -27 -176 -43 -4 -7 -8 -20 -8 -30 0 -17 8
-18 75 -15 41 2 75 0 75 -5 0 -20 -90 -101 -137 -123 -72 -35 -134 -124 -85
-124 41 0 166 100 247 199 42 51 55 61 82 61 24 0 38 8 57 33 32 42 32 47 0
47 -32 0 -30 4 29 97 42 65 50 73 130 112 94 46 157 63 157 40 0 -21 -70 -152
-150 -284 -70 -113 -71 -117 -54 -136 10 -11 23 -18 30 -17 6 2 47 48 90 103
107 137 180 219 233 260 81 63 82 41 5 -75 -68 -101 -132 -232 -141 -283 -6
-41 16 -77 46 -77 39 0 201 131 201 163 0 14 -11 9 -51 -23 -52 -41 -93 -51
-103 -25 -6 17 15 81 40 122 52 82 136 191 151 196 10 3 51 17 91 31 41 14 75
26 77 26 1 0 8 -21 14 -46 11 -44 10 -48 -20 -95 -17 -27 -38 -49 -45 -49 -8
0 -33 -9 -54 -20 -50 -25 -64 -65 -32 -91 l22 -17 -35 -67 c-37 -71 -46 -125
-20 -125 17 0 68 72 70 99 0 9 7 32 14 49 13 30 16 32 67 32 30 0 54 -4 54 -8
0 -34 -46 -175 -75 -230 -72 -137 -170 -235 -307 -307 -192 -102 -464 -102
-656 0 -159 83 -270 205 -337 372 l-23 55 33 30 c76 66 62 148 -32 197 -27 14
-29 46 -12 134 l12 57 51 0 51 0 -30 -18 c-26 -17 -64 -52 -54 -52 2 0 38 17
79 38 63 32 76 42 84 71 8 28 7 36 -9 47 -10 8 -35 14 -54 15 -74 1 -76 8 -32
76 98 152 243 258 415 303 99 26 268 26 368 1z m528 -666 c0 -20 -5 -25 -26
-25 -25 0 -25 6 -1 38 15 19 27 14 27 -13z m-1375 -95 c0 -7 -10 -19 -22 -27
-23 -15 -23 -15 -23 27 0 42 0 42 23 28 12 -9 22 -21 22 -28z"/>
</g>
</svg>
